Patient4_TMGait_0pt4_02_right_16_EMG.mot
version=1
nRows=16
nColumns=33
inDegrees=no
endheader
time	1LAddLong	2LGlutMax	3LGlutMed	4LIliopsoas	5LSemiMemb	6LBicFemLong	7LRecFem	8LVastMed	9LVastLat	10LGasMed	11LTibAnt	12lTibPost	13LPeroneusLong	14LSol	15LExtDigLong	16LFlexDigLong	17RAddLong	18RGlutMax	19RGlutMed	20RIliopsoas	21RSemiMemb	22RBicFemLong	23RRecFem	24RVastMed	25RVastLat	26RGasMed	27RTibAnt	28RTibPost	29RPeroneusLong	30RSol	31RExtDigLong	32RFlexDigLong
22.085	0.005798	-0.056305	-0.037079	-0.001526	0.004578	0.016327	0.015106	-0.003815	0.010529	0.10223	-0.02655	-0.014343	-0.11749	0.15274	-0.10162	0.24048	0.011292	-0.14679	-0.91141	0.017548	0.006409	0.4953	-0.037689	-0.039063	0.037689	0.006256	0.012512	-0.009003	0.056305	-0.045166	-0.000916	-0.007172
22.086	0.002594	-0.030365	-0.003357	0.003357	0.007629	-0.015564	0.022888	0.000763	0.015564	0.33981	0.024414	-0.017548	-0.17166	0.2182	-0.074768	-0.034332	0.015259	-0.039063	-0.43961	-0.010834	0.00412	0.49606	-0.031128	-0.06012	0.023041	0.005798	0.01358	-0.004578	-0.26108	-0.06897	0.002594	-0.005493
22.087	0.005035	-0.015106	-0.000458	0.005951	0.012817	-0.041656	0.032959	0.006104	0.028839	0.57007	0.018311	-0.01358	-0.13168	0.2861	0.001373	-0.10956	0.007629	0.027161	0.065155	-0.002899	-0.041809	0.495	0.015411	-0.05722	0.024719	0.013885	-0.000305	-0.002747	0.10117	-0.061188	0.001068	-0.005798
22.088	-0.004425	-0.017853	0.02655	0.016327	0.018005	-0.050812	0.034485	0.000763	0.016479	0.82016	0.010681	-0.00946	-0.06012	0.27878	0.10727	0.78919	0.010986	-0.066528	0.016174	-0.03418	-0.091858	0.4866	-0.031128	-0.016327	0.043335	0.006866	-0.056763	-0.005341	0.38025	-0.065002	0.001068	-0.009766
22.089	0.002136	-0.005951	0.094299	0.022583	0.00824	-0.021667	0.031281	0.011292	0.018005	0.27985	0.009766	-0.018311	-0.000153	0.21271	0.059052	0.13031	-0.007324	-0.10605	-0.011597	-0.029602	-0.10559	0.49866	-0.041656	0.032654	0.042114	0.001526	-0.039063	-0.004883	0.23209	-0.02533	0.000153	-0.01236
22.09	-0.008087	-0.015106	0.06012	0.019073	0.01297	-0.008698	0.046692	0.008698	-0.029907	0.215	-0.001678	-0.11414	0.1236	0.20935	0.031433	-1.0422	0.004272	-0.098419	0.16007	-0.021362	-0.075684	0.49301	-0.025635	-0.02594	0.041199	0.005341	-0.010529	-0.004578	0.27863	0.02182	0.000763	-0.010834
22.091	0.000458	-0.005341	0.004578	0.019073	0.010986	-0.009308	0.028381	0.005035	-0.071411	0.51697	-0.00061	0.47195	0.18845	0.23071	0.031433	0.084534	0.012512	-0.063477	0.28549	-0.039978	0.10239	0.42267	-0.026703	-0.019226	0.045929	0.005035	0.074615	-0.005341	-0.093231	0.024719	-0.003357	-0.010376
22.092	0.009003	-0.015106	0.021667	0.005035	0.010376	-0.04425	0.023346	0.005951	-0.046692	1.1522	-0.017548	-0.18326	0.14389	0.19913	-0.001373	0.53406	0.027161	-0.090027	0.34927	-0.005646	0.12955	0.36331	-0.034485	0.008392	0.042114	0.001831	0.049591	-0.003357	0.038147	0.098877	-0.003357	-0.006714
22.093	0.010071	0.019684	0.01709	0.003967	0.009918	-0.067291	0.023804	0.009613	0.009155	0.19363	-0.015564	-0.10529	0.07019	0.16129	-0.00351	0.32181	0.034637	-0.10559	0.04776	0.057983	0.18265	0.25665	-0.003967	0.00824	0.025635	0.001678	0.013885	-0.007019	0.19791	0.095673	0.001678	-0.014954
22.094	0.00885	0.019226	0.097656	0.00061	-0.001373	-0.060425	0.00824	0.010223	0.08606	-0.52521	-0.016632	-0.015564	-0.077972	-0.25299	-0.009766	0.36743	0.017548	-0.085297	-0.43533	0.013885	0.20386	0.23514	-0.008545	0.007019	0.011749	0.003204	-0.018768	-0.003357	0.12726	-0.013275	0.002594	-0.006256
22.095	0.003815	-0.002136	0.037231	0.017853	0.011139	-0.040436	-0.050964	0.013275	0.1915	-0.26062	-0.008392	0.011139	-0.07309	-0.47974	0.001831	-0.36377	0.007629	-0.093079	-0.72418	-0.14252	0.17716	0.20935	-0.018616	-0.032806	0.013885	0.00473	-0.001068	-0.00412	-0.065765	-0.001526	0.00351	-0.002899
22.096	0.017395	0.013885	0.028687	0.015106	0.040894	-0.007172	-0.082245	0.014496	0.25787	-0.22964	-0.003662	0.023346	-0.14389	-0.98007	-0.020752	-0.3122	-0.014191	0.039063	-0.4805	-0.15243	-0.02594	0.26947	0.024109	0.011444	-0.003815	0.002899	0	-0.00946	-0.027466	0.006409	-0.000763	0.003967
22.097	0.006409	0.020294	-0.033112	0.025635	0.030212	0.050354	-0.054626	0.005188	0.23148	-0.42908	0.006866	-0.032806	-0.17136	-1.2134	-0.049744	-0.093689	-0.018005	-0.007324	0.025024	0	-0.34225	0.29633	0.03418	-0.006409	-0.025177	0.002289	0.025177	-0.003204	-0.005493	0.014191	0.001526	-0.000305
22.098	0.006104	-0.008087	-0.032959	0.003662	0.019836	0.12787	-0.03418	-0.013275	0.14358	-0.33508	0.006866	-0.069427	-0.10483	-0.5011	-0.047913	0.052185	-0.008545	-0.057068	0.39414	0.090332	-0.32852	0.27222	0.015564	-0.052338	-0.027161	-0.002136	0.043793	0.002289	-0.12161	0.018921	0.001221	0.001526
22.099	0.020599	-0.05127	-0.040588	0.004883	0.005493	0.22568	-0.023956	-0.015564	0.13031	0.032959	0.011139	-0.058136	0.006256	0.10773	-0.031586	-0.049591	-0.009918	-0.16571	0.25391	0.003357	-0.18539	0.2179	0.059662	-0.037994	-0.013885	0.002594	0.058136	-0.00473	-0.1474	0.019684	-0.000305	-0.000153
22.1	0.023041	0.01297	-0.048676	0.019073	0.000458	0.22324	0.005646	-0.010071	0.087433	-0.46539	-0.000916	0.10757	-0.006256	0.26398	-0.013733	-0.089874	0.005798	-0.11887	0.18509	-0.121	-0.10468	0.15778	0.052338	-0.015259	-0.007782	0.003815	0.052032	-0.006561	-0.18204	0.027618	-0.000763	-0.005493
